<?xml version="1.0" encoding="utf-8"?>
<!-- Generator: Adobe Illustrator 24.2.1, SVG Export Plug-In . SVG Version: 6.00 Build 0)  -->
<svg version="1.1" id="Layer_1" xmlns="http://www.w3.org/2000/svg" xmlns:xlink="http://www.w3.org/1999/xlink" x="0px" y="0px"
	 viewBox="0 0 984 171" style="enable-background:new 0 0 984 171;" xml:space="preserve">
<style type="text/css">
	.st0{fill:#0065BD;}
</style>
<g>
	<rect x="712" y="1" class="st0" width="34" height="34"/>
</g>
<g>
	<path class="st0" d="M950,136.8V0h-34v136.8h-34V0H780v136.8h-34V68.4h-34v68.4h-34v-34.2h-34v34.2h-34V34.2h34v34.2h34V0H372
		v102.6h68v34.2h-68V171h102V68.4h-68V34.2h102V171h306v-68.4h34V171h136v-34.2H950z M576,136.8h-34V34.2h34V136.8z M848,68.4h-34
		V34.2h34V68.4z"/>
</g>
<g>
	<polygon class="st0" points="169,-0.98 338,-0.98 338,172 304,172 304,33.61 271,33.61 271,172 237,172 237,33.61 203,33.61 
		203,170.98 101,170.98 101,32.6 68,32.6 68,170.98 34,170.98 34,32.6 0,32.6 0,-2 135,-2 135,136.39 169,136.39 	"/>
</g>
</svg>
